HIERARCHY
ROOT Hips
{
   OFFSET 0.00000 0.00000 0.00000
   CHANNELS 6 Xposition Yposition Zposition Zrotation Xrotation Yrotation
   JOINT Spine
   {
      OFFSET 0.000000 11.890501 0.000000
      CHANNELS 3 Zrotation Xrotation Yrotation
      JOINT Spine1
      {
         OFFSET -0.000000 25.657401 0.127660
         CHANNELS 3 Zrotation Xrotation Yrotation
         JOINT HEad
         {
            OFFSET 0.000000 8.734161 0.011340
            CHANNELS 3 Zrotation Xrotation Yrotation
            End Site
            {
               OFFSET -0.290000 12.774200 2.513950
            }
         }
         JOINT LeftShoulder1
         {
            OFFSET 8.990000 -0.362250 -0.220000
            CHANNELS 3 Zrotation Xrotation Yrotation
            JOINT LeftArm
            {
               OFFSET 10.282700 -0.003380 0.322120
               CHANNELS 3 Zrotation Xrotation Yrotation
               JOINT LeftForeArm
               {
                  OFFSET 32.766900 0.099140 -1.424340
                  CHANNELS 3 Zrotation Xrotation Yrotation
                  JOINT LeftHand
                  {
                     OFFSET 27.564301 0.085360 1.022160
                     CHANNELS 3 Zrotation Xrotation Yrotation
                     End Site
                     {
                        OFFSET 16.744301 -0.600000 1.502910
                     }
                  }
               }
            }
         }
         JOINT RightShoulder
         {
            OFFSET -8.990000 -0.362250 -0.220000
            CHANNELS 3 Zrotation Xrotation Yrotation
            JOINT RightArm
            {
               OFFSET -10.282700 -0.003380 0.322120
               CHANNELS 3 Zrotation Xrotation Yrotation
               JOINT RightForeArm
               {
                  OFFSET -32.897098 0.099140 -1.424340
                  CHANNELS 3 Zrotation Xrotation Yrotation
                  JOINT RightHand
                  {
                     OFFSET -27.492101 0.085360 1.022160
                     CHANNELS 3 Zrotation Xrotation Yrotation
                     End Site
                     {
                        OFFSET -16.631201 -0.600000 1.502910
                     }
                  }
               }
            }
         }
      }
   }
   JOINT LeftUpLeg
   {
      OFFSET 8.945800 -8.667070 0.101650
      CHANNELS 3 Zrotation Xrotation Yrotation
      JOINT LeftLeg
      {
         OFFSET 0.000000 -44.422697 1.372700
         CHANNELS 3 Zrotation Xrotation Yrotation
         JOINT LeftFoot
         {
            OFFSET -0.253550 -42.092399 -1.460590
            CHANNELS 3 Zrotation Xrotation Yrotation
            JOINT LeftToes
            {
               OFFSET -0.040000 -4.415090 8.499099
               CHANNELS 3 Zrotation Xrotation Yrotation
               End Site
               {
                  OFFSET 0.080000 -0.047450 9.779790
               }
            }
         }
      }
   }
   JOINT RightUpLeg
   {
      OFFSET -8.945800 -8.667070 0.101650
      CHANNELS 3 Zrotation Xrotation Yrotation
      JOINT RightLeg
      {
         OFFSET 0.000000 -44.422697 1.372700
         CHANNELS 3 Zrotation Xrotation Yrotation
         JOINT RightFoot
         {
            OFFSET 0.253550 -42.092399 -1.460590
            CHANNELS 3 Zrotation Xrotation Yrotation
            JOINT RightToes
            {
               OFFSET 0.040000 -4.415090 8.499099
               CHANNELS 3 Zrotation Xrotation Yrotation
               End Site
               {
                  OFFSET -0.080000 -0.137450 9.779790
               }
            }
         }
      }
   }
}
MOTION
Frames: 12
Frame Time: 0.016670
45.043968 97.916773 -13.219434 14.066143 14.940665 156.469580 -2.906940 25.576574 -23.000636 -0.916389 1.738558 -3.848725 2.014424 8.675080 11.673217 0.661156 7.595823 58.101783 -102.320892 -19.126917 -77.332194 -73.836906 47.889776 -57.203138 37.368487 45.488138 -40.692597 16.390982 32.839491 68.995033 9.384974 -66.037506 -37.724016 48.050138 8.727997 58.008626 61.903521 9.424538 22.184154 19.215788 -3.033135 -69.249246 -19.158288 -5.892274 81.219282 14.420590 13.801768 10.117262 -16.451453 -15.907548 -64.510672 -21.025047 29.526607 -15.626517 15.287082 28.102928 59.225984 -51.322212 2.549457 30.937673 53.941016 -43.220932 -20.081909
44.853310 97.920531 -13.136138 12.036912 17.241938 163.698160 -1.004504 27.382604 -25.188230 -0.601623 1.551623 -3.670107 0.589155 6.593049 11.528097 1.297877 6.901056 54.847836 -107.931790 -27.333927 -81.404913 -75.902144 53.281520 -55.935076 30.607406 25.282913 -24.922952 10.978458 29.073096 77.574591 16.982576 -72.235288 -30.012203 51.892198 9.135842 59.052921 58.785860 9.628197 24.229765 15.580577 -3.079049 -73.084513 -17.780166 -5.465918 78.884703 16.549057 13.570234 10.414602 -18.084205 -14.562616 -65.054717 -21.033803 31.800265 -19.314523 12.544108 28.616954 68.024497 -51.662817 1.726300 30.333755 47.070245 -47.294279 -37.651834
44.564275 97.969120 -13.083628 9.362080 19.612695 171.663677 1.623548 28.693860 -27.885214 -0.405990 1.345439 -3.542016 -1.719345 4.514666 11.274752 1.490903 6.306656 50.226722 -114.491107 -35.349016 -86.611436 -77.617109 58.212541 -55.300927 27.520439 22.133436 -26.090354 11.983812 26.660366 70.416511 50.470761 -68.385302 8.021192 56.114427 9.565963 61.289726 56.194196 10.297814 25.062269 11.535627 -2.626396 -76.743630 -16.730700 -4.898239 75.803912 18.868889 13.314683 10.793409 -19.305531 -13.137631 -65.758814 -20.987776 34.133833 -23.080287 9.391939 29.270977 75.045556 -49.396888 1.190898 29.621970 42.061586 -46.561355 -44.186703
44.216427 98.042706 -13.064840 5.909626 21.799959 180.668148 4.740607 29.502473 -30.680295 -0.448823 1.214520 -3.039938 -5.079070 2.683550 11.052646 3.227499 7.683381 54.173874 -120.990463 -33.421092 -88.127322 -77.583880 62.199350 -55.428317 26.469239 4.734093 -18.504128 12.336693 23.950777 63.110381 69.762521 -61.242290 30.781795 60.095037 10.939160 64.450198 53.385766 10.286279 25.206518 7.228353 -2.150849 -80.342948 -16.687042 -3.784461 71.772099 21.227704 13.141427 11.023166 -20.047585 -11.563186 -66.716687 -20.387652 36.879808 -26.151087 7.512669 30.702609 76.889024 -48.051402 1.280086 29.307891 35.806949 -47.814521 -51.979345
43.856601 98.082264 -13.051729 2.857391 22.884327 188.605087 7.680347 29.125156 -31.252367 -0.482936 1.015233 -2.336952 -9.240466 1.650133 10.872336 3.411963 6.933708 45.839445 -125.554491 -37.881786 -92.647732 -77.176438 65.240014 -55.084256 24.563027 2.047368 -20.351848 4.959923 14.542094 64.430957 93.591828 -59.817506 48.442280 63.967604 13.525538 68.267290 51.285613 11.155136 24.639892 3.699234 -1.491645 -81.459814 -16.357471 -2.594315 67.007885 23.127357 12.900958 11.358488 -20.756617 -9.926335 -67.563289 -19.031462 38.657491 -27.095618 7.921191 31.198443 74.024251 -46.962458 1.426684 28.920636 32.398336 -47.000031 -54.014864
43.518438 98.066061 -13.021900 0.233861 23.276941 195.143982 10.281140 28.221874 -29.661217 -0.373748 0.721970 -1.530442 -12.890675 1.869020 9.160222 2.913274 6.271727 37.005849 -128.633581 -39.797733 -95.060633 -76.602177 67.149072 -54.641814 24.995509 -5.431727 -16.657378 4.494772 12.779914 54.848072 98.764016 -49.959535 58.610973 66.743639 15.493965 71.349351 49.366022 10.768030 22.959730 1.017952 -0.900362 -80.460038 -16.076290 -1.435618 61.329942 24.446526 12.580388 11.601839 -21.397943 -8.207319 -68.329049 -17.431715 39.838318 -26.286441 9.690359 30.995655 67.988482 -46.422825 1.643641 28.517851 29.773816 -46.280211 -55.579841
43.229751 98.003424 -12.950138 -1.781787 23.727608 200.337385 12.392428 26.727186 -26.292368 -0.026261 0.948459 -0.918988 -16.030905 3.349950 6.156687 2.661523 6.093161 27.400217 -129.627715 -40.218982 -96.225003 -75.163650 68.279782 -54.219397 23.442130 -5.406708 -18.153685 3.869120 11.650325 44.705955 100.675807 -39.582630 67.225823 69.015701 17.620315 73.546295 48.121538 10.764515 21.446963 -0.715452 0.112086 -77.537325 -15.663818 -0.149204 54.913942 25.263145 12.434207 11.829614 -21.903343 -6.457863 -69.023610 -15.825067 40.754082 -23.853384 12.122644 30.493462 60.242487 -45.807692 1.939766 28.264240 28.432700 -45.608496 -55.223988
42.987713 97.892226 -12.869315 -3.282766 23.849204 204.462888 14.288186 25.863893 -21.209167 0.286692 1.505283 -0.384902 -18.497185 6.326278 2.016785 2.312852 5.880125 17.336902 -125.068536 -37.340169 -93.605721 -64.292584 66.731112 -62.309097 23.911005 -8.564451 -16.250389 3.770797 11.052645 34.006836 99.642802 -29.224061 75.054435 70.551660 18.840882 74.761768 30.891504 14.245949 9.408779 -1.770041 1.002231 -72.969021 -14.968407 1.065362 47.753169 25.569573 12.386055 12.004419 -22.246975 -4.823126 -69.610385 -14.248209 41.343200 -20.254098 14.991891 29.391356 51.692132 -45.056743 2.257424 28.077963 27.579684 -45.328988 -54.586267
42.773575 97.770470 -12.782728 -4.380238 23.982816 207.533208 15.683605 25.193117 -14.658368 0.721886 1.840500 0.165845 -19.243214 9.947120 -4.643000 2.279756 6.110868 6.653426 -117.607893 -32.713201 -89.280285 -50.239286 62.940828 -72.557625 22.820355 -7.762706 -17.860304 4.765715 10.607017 22.591547 96.530879 -19.347178 81.929499 67.598239 15.698524 75.893777 29.967520 14.967140 7.506271 -2.409876 1.901968 -68.162856 -14.189567 2.116609 41.094776 25.371147 12.446829 12.108573 -22.395514 -3.453983 -70.068493 -12.798743 41.748664 -16.786611 17.292330 28.129101 43.772835 -43.939331 2.525732 27.882063 27.161422 -45.459881 -53.498379
42.592768 97.659529 -12.755475 -4.597944 23.754571 208.005912 16.429381 24.212561 -6.664409 0.977790 1.554003 0.398490 -18.882027 13.608741 -11.617335 2.603168 7.021674 -3.092697 -109.715535 -26.612746 -84.487924 -44.499102 55.234767 -76.142901 21.269344 -4.315577 -18.547331 6.550812 10.291817 12.673372 93.225546 -13.885927 85.834612 65.639334 13.196802 77.409396 22.669652 17.947046 3.002369 -2.513538 2.131134 -61.633079 -13.432080 2.992139 34.975780 24.646558 12.590098 12.106702 -22.350768 -2.507962 -70.396813 -12.254323 41.312109 -11.559235 19.662115 26.671629 32.893945 -40.789429 3.066364 27.607773 27.843775 -46.217295 -48.002126
42.414684 97.582406 -12.788645 -3.905592 23.635248 206.291015 16.719746 23.454222 1.714030 1.069408 1.422633 0.318463 -17.337259 16.855411 -18.976960 3.349385 7.730437 -11.556950 -105.093416 -23.739728 -82.331305 -42.054086 49.451847 -77.788014 19.228874 -0.855731 -20.124784 8.817954 10.115977 3.982160 90.390402 -9.933524 87.086374 60.653992 8.054507 78.165703 27.138242 16.208819 5.437686 -1.939895 2.153104 -53.862991 -12.649465 3.803551 29.488758 23.437912 12.881335 12.013698 -22.099384 -2.102767 -70.591815 -12.359741 40.356921 -5.067999 21.891911 23.830646 23.024346 -41.565669 2.978905 27.573159 32.032317 -45.394810 -42.841098
42.241177 97.538937 -12.866227 -2.575723 23.370117 202.900154 16.885674 23.457976 8.950994 0.943482 1.381231 -0.192213 -15.454995 18.382418 -25.353092 4.079907 7.861473 -17.335293 -102.330154 -23.059774 -81.266458 -41.279525 45.553824 -78.426049 18.068950 0.082310 -19.392085 10.752092 9.279359 -2.276810 89.877858 -9.480248 84.381086 57.015803 5.571253 77.940327 15.542584 22.809687 0.648789 -0.978571 2.001454 -45.118987 -11.963867 4.408157 24.715171 21.672574 13.247820 11.892047 -21.780671 -2.315026 -70.627721 -12.936418 39.086471 2.454707 24.020682 21.068357 12.773459 -37.409684 3.805210 27.571901 31.813399 -45.334684 -36.392286
